<svg width="16" height="16" viewBox="0 0 16 16" fill="none" xmlns="http://www.w3.org/2000/svg">
<path fill-rule="evenodd" clip-rule="evenodd" d="M14.9167 6.66667H9.08332C7.79466 6.66667 6.74999 7.71134 6.74999 9V14.6H2.31666C1.94535 14.6 1.58926 14.4525 1.32671 14.1899C1.06416 13.9274 0.916656 13.5713 0.916656 13.2V3.4C0.916656 3.0287 1.06416 2.6726 1.32671 2.41005C1.58926 2.1475 1.94535 2 2.31666 2H5.81666L7.21666 4.1H13.5167C13.888 4.1 14.2441 4.2475 14.5066 4.51005C14.7692 4.7726 14.9167 5.1287 14.9167 5.5L14.9167 6.66667Z" fill="#798BAF"/>
<rect opacity="0.1" x="8" y="8" width="7" height="7" rx="1" fill="#252D3A"/>
<g transform="translate(8.5, 8) scale(0.292)">
<path d="M4 18V6" stroke="#336791" stroke-width="1.5" stroke-linecap="round"/>
<path d="M20 6V18" stroke="#336791" stroke-width="1.5" stroke-linecap="round"/>
<path d="M12 10C16.4183 10 20 8.20914 20 6C20 3.79086 16.4183 2 12 2C7.58172 2 4 3.79086 4 6C4 8.20914 7.58172 10 12 10Z" stroke="#336791" stroke-width="1.5"/>
<path opacity="0.5" d="M20 12C20 14.2091 16.4183 16 12 16C7.58172 16 4 14.2091 4 12" stroke="#336791" stroke-width="1.5"/>
<path d="M20 18C20 20.2091 16.4183 22 12 22C7.58172 22 4 20.2091 4 18" stroke="#336791" stroke-width="1.5"/>
</g>
</svg>
